<svg version="1.2" xmlns="http://www.w3.org/2000/svg" viewBox="0 0 64 64" width="64" height="64"><style>.a{fill:#be9bde;stroke:#000}.b{fill:#946fb5;stroke:#000}.c{fill:#fff;stroke:#000}</style><path class="a" d="m8 44h47v17h-47z"/><path class="b" d="m15 44c0-18.7 34-22.5 34 0-38.7 0-11.4 0-34 0z"/><path class="b" d="m21.3 15c0 12.7 21.4 13.1 21.4 0 0-16.7-21.6-16-21.6 0"/><path class="c" d="m29 50l2-4 3 4 4 1-3 3 1 4-4-2-4 2v-4l-3-3z"/><path class="c" d="m42 50l2-4 3 4 4 1-3 3 1 4-4-2-4 2v-4l-3-3z"/><path class="c" d="m16 50l2-4 3 4 4 1-3 3 1 4-4-2-4 2v-4l-3-3z"/></svg>