<svg version="1.2" xmlns="http://www.w3.org/2000/svg" viewBox="0 0 53 53" width="53" height="53"><style>.a{display:none;fill:#0ff}.b{fill:#946fb5;stroke:#000}</style><g style="display:none"></g><g style="display:none"></g><g style="display:none"><path fill-rule="evenodd" class="a" d="m46.5 24.6h4.6c0.5 0 0.8 0.4 0.8 0.8v19.4c0 0.4-0.3 0.8-0.8 0.8h-39.5c-0.3 0-0.6-0.2-0.7-0.5l-2.6-4.3c-0.2-0.4-0.1-0.8 0.3-1.1q0 0 0.1 0c0.9-0.6 1.5-1.4 1.7-2.3 0.3-0.9 0.2-2-0.4-2.9q0 0 0-0.1c-0.5-0.8-1.4-1.4-2.3-1.7-1-0.2-2-0.1-2.9 0.4-0.4 0.2-0.8 0.1-1.1-0.3l-2.5-4.4c-0.2-0.4-0.1-0.9 0.3-1.1l34.3-19.8c0.3-0.2 0.8-0.1 1 0.3zm-1.1 1.6l-31 17.8h36v-17.8zm-33.6 17.6l7.9-4.6-1.5-2.7c-0.2-0.4-0.1-0.9 0.3-1.1 0.3-0.2 0.8-0.1 1 0.3l1.6 2.7 23.7-13.7-9-15.5-23.7 13.7 1.6 2.7c0.2 0.4 0.1 0.9-0.3 1.1-0.4 0.2-0.8 0.1-1-0.3l-1.6-2.7-7.9 4.6 1.8 3.1c1.1-0.4 2.3-0.5 3.4-0.2 1.3 0.4 2.5 1.2 3.2 2.5 0.8 1.3 0.9 2.8 0.6 4.1-0.3 1.1-1 2.1-1.9 2.8zm2.5-14c-0.2-0.4-0.1-0.8 0.3-1 0.3-0.2 0.8-0.1 1 0.2l2 3.4c0.2 0.4 0 0.9-0.3 1.1-0.4 0.2-0.9 0-1.1-0.3z"/></g><g style="display:none"></g><path class="b" d="m11 44h40v-19l-23 1"/><path class="b" d="m2 28l34-20 9 16-33 21c0 0-1.2-1.3-3-4 5.3-4.7 0.1-13.1-5-9-2.2-3.7-2-4-2-4z"/></svg>