<?xml version="1.0" encoding="utf-8"?>
<!-- Generator: Adobe Illustrator 25.4.1, SVG Export Plug-In . SVG Version: 6.00 Build 0)  -->
<svg version="1.1" xmlns="http://www.w3.org/2000/svg" xmlns:xlink="http://www.w3.org/1999/xlink" x="0px" y="0px"
	 viewBox="0 0 53 53" style="enable-background:new 0 0 53 53;" xml:space="preserve">
<style type="text/css">
	.st0{fill:#023047;}
	.st1{fill:#2B8CA9;}
	.st2{fill:#0A5B7F;}
	.st3{clip-path:url(#SVGID_00000172430837310565041380000000287557123257103776_);}
	.st4{fill-rule:evenodd;clip-rule:evenodd;fill:#FFFFFF;}
	.st5{fill:#FFFFFF;}
	.st6{fill:#00ABE5;}
	.st7{fill:#E73137;}
	.st8{fill-rule:evenodd;clip-rule:evenodd;fill:#004996;}
	.st9{fill:#64F4FD;}
	.st10{fill:#00ABE5;enable-background:new    ;}
	.st11{fill:none;stroke:#FFFFFF;stroke-miterlimit:10;}
	.st12{clip-path:url(#SVGID_00000116237246575634782220000004759577812517982652_);}
	.st13{fill:#022537;}
	.st14{clip-path:url(#SVGID_00000018918438669263581790000014277829901927603095_);}
	.st15{fill:#00FFFF;}
	.st16{fill:none;}
	.st17{clip-path:url(#SVGID_00000054946565411498274580000006669494306295811257_);}
</style>
<g id="Capa_1">
</g>
<g id="Capa_2">
</g>
<g id="pa_svg">
	<g>
		<path class="st15" d="M46.5,24.62h4.64c0.43,0,0.77,0.34,0.77,0.77v19.4c0,0.43-0.34,0.77-0.77,0.77H11.56
			c-0.3,0-0.57-0.18-0.69-0.43l-2.53-4.38c-0.2-0.35-0.1-0.8,0.24-1.02l0,0l0,0c0.03-0.02,0.05-0.03,0.08-0.05
			c0.89-0.53,1.49-1.37,1.74-2.3c0.25-0.93,0.15-1.96-0.36-2.86l0,0l0,0c-0.02-0.03-0.03-0.05-0.05-0.08
			c-0.53-0.89-1.37-1.49-2.3-1.74c-0.95-0.25-1.99-0.15-2.9,0.38c-0.37,0.21-0.84,0.09-1.05-0.28l0,0L1.2,28.38
			c-0.21-0.37-0.09-0.84,0.28-1.05L35.75,7.54c0.37-0.21,0.84-0.09,1.05,0.28L46.5,24.62L46.5,24.62z M50.37,26.16h-4.99
			L14.43,44.02h35.93V26.16L50.37,26.16z M11.84,43.75l7.91-4.57l-1.56-2.69c-0.21-0.37-0.09-0.84,0.28-1.05
			c0.37-0.21,0.84-0.09,1.05,0.28l1.56,2.7l23.7-13.68L35.85,9.25l-23.7,13.68l1.56,2.7c0.21,0.37,0.08,0.84-0.28,1.05
			c-0.37,0.21-0.84,0.08-1.05-0.28l-1.56-2.69l-7.91,4.57l1.81,3.14c1.1-0.44,2.29-0.49,3.38-0.2c1.31,0.35,2.49,1.2,3.23,2.45
			l0,0.01l0,0l0,0l0.02,0.04l0,0l0,0l0,0l0,0c0.74,1.28,0.89,2.74,0.53,4.06c-0.29,1.09-0.93,2.09-1.86,2.83L11.84,43.75
			L11.84,43.75z M14.32,29.76c-0.21-0.37-0.08-0.84,0.28-1.05c0.37-0.21,0.84-0.08,1.05,0.28l1.94,3.36
			c0.21,0.37,0.08,0.84-0.28,1.05c-0.37,0.21-0.84,0.08-1.05-0.28L14.32,29.76L14.32,29.76z"/>
	</g>
</g>
<g id="Capa_4">
</g>
<g id="Capa_5">
</g>
</svg>
