<?xml version="1.0" standalone="no"?>
<!DOCTYPE svg PUBLIC "-//W3C//DTD SVG 20010904//EN"
 "http://www.w3.org/TR/2001/REC-SVG-20010904/DTD/svg10.dtd">
<svg version="1.0" xmlns="http://www.w3.org/2000/svg"
 width="50.000000pt" height="50.000000pt" viewBox="0 0 50.000000 50.000000"
 preserveAspectRatio="xMidYMid meet">
<metadata>
Created by potrace 1.16, written by Peter Selinger 2001-2019
</metadata>
<g transform="translate(0.000000,50.000000) scale(0.100000,-0.100000)"
fill="#000000" stroke="none">
<path d="M170 480 c0 -5 -25 -10 -55 -10 l-55 0 0 -220 0 -220 190 0 190 0 0
220 0 220 -55 0 c-30 0 -55 5 -55 10 0 6 -33 10 -80 10 -47 0 -80 -4 -80 -10z
m0 -40 c0 -5 -16 -10 -35 -10 l-35 0 0 -180 0 -180 150 0 150 0 0 180 0 180
-35 0 c-19 0 -35 5 -35 11 0 6 17 9 43 7 l42 -3 0 -195 0 -195 -165 0 -165 0
-3 185 c-1 101 0 190 2 197 6 15 86 18 86 3z m0 -40 c0 -6 33 -10 80 -10 47 0
80 4 80 10 0 6 11 10 25 10 l25 0 0 -160 0 -160 -130 0 -130 0 0 160 0 160 25
0 c14 0 25 -4 25 -10z"/>
<path d="M222 266 c-43 -45 -62 -72 -62 -90 0 -21 5 -26 26 -26 39 0 154 113
154 152 0 24 -4 28 -28 28 -22 0 -43 -15 -90 -64z"/>
</g>
</svg>
