<?xml version="1.0" encoding="utf-8"?>
<!-- Generator: Adobe Illustrator 25.4.1, SVG Export Plug-In . SVG Version: 6.00 Build 0)  -->
<svg version="1.1" xmlns="http://www.w3.org/2000/svg" xmlns:xlink="http://www.w3.org/1999/xlink" x="0px" y="0px"
	 viewBox="0 0 53 53" style="enable-background:new 0 0 53 53;" xml:space="preserve">
<style type="text/css">
	.st0{fill:#023047;}
	.st1{fill:#2B8CA9;}
	.st2{fill:#0A5B7F;}
	.st3{clip-path:url(#SVGID_00000174564306268007958550000013845729891995495566_);}
	.st4{fill-rule:evenodd;clip-rule:evenodd;fill:#FFFFFF;}
	.st5{fill:#FFFFFF;}
	.st6{fill:#00ABE5;}
	.st7{fill:#E73137;}
	.st8{fill-rule:evenodd;clip-rule:evenodd;fill:#004996;}
	.st9{fill:#64F4FD;}
	.st10{fill:#00ABE5;enable-background:new    ;}
	.st11{fill:none;stroke:#FFFFFF;stroke-miterlimit:10;}
	.st12{clip-path:url(#SVGID_00000089543366547111632450000013360798648245415827_);}
	.st13{fill:#022537;}
	.st14{clip-path:url(#SVGID_00000099623033643882981130000005565854360922756744_);}
	.st15{fill:#00FFFF;}
	.st16{fill:none;}
	.st17{clip-path:url(#SVGID_00000058547122326343612230000000632935188780999354_);}
</style>
<g id="Capa_1">
</g>
<g id="Capa_2">
</g>
<g id="pa_svg">
	<path class="st15" d="M50.16,33.11c-0.69-1.62-1.67-3.08-2.92-4.33c-1.25-1.25-2.7-2.23-4.33-2.92c-1.68-0.71-3.46-1.07-5.3-1.07
		c-1.84,0-3.62,0.36-5.3,1.07c-1.62,0.69-3.08,1.67-4.33,2.92c-1.25,1.25-2.23,2.71-2.92,4.33c-0.71,1.68-1.07,3.46-1.07,5.3
		c0,1.84,0.36,3.62,1.07,5.3c0.69,1.62,1.67,3.08,2.92,4.33c1.25,1.25,2.7,2.23,4.33,2.92c1.68,0.71,3.46,1.07,5.3,1.07
		c1.84,0,3.62-0.36,5.3-1.07c1.62-0.69,3.08-1.67,4.33-2.92c1.25-1.25,2.23-2.7,2.92-4.33c0.71-1.68,1.07-3.46,1.07-5.3
		C51.23,36.58,50.87,34.79,50.16,33.11z M47.36,39.69h1.23c-0.59,5.05-4.65,9.1-9.69,9.69v-1.23c0-0.71-0.57-1.28-1.28-1.28
		c-0.71,0-1.28,0.57-1.28,1.28v1.23c-5.05-0.59-9.1-4.65-9.69-9.69h1.23c0.71,0,1.28-0.57,1.28-1.28c0-0.71-0.57-1.28-1.28-1.28
		h-1.23c0.59-5.05,4.65-9.1,9.69-9.69v1.23c0,0.71,0.57,1.28,1.28,1.28c0.71,0,1.28-0.57,1.28-1.28v-1.23
		c5.05,0.59,9.1,4.65,9.69,9.69h-1.23c-0.71,0-1.28,0.57-1.28,1.28C46.07,39.12,46.65,39.69,47.36,39.69z"/>
	<path class="st15" d="M44.13,38.58v-0.34c0-0.75-0.61-1.37-1.37-1.37h-3.34c-0.45-0.53-1.11-0.83-1.81-0.83
		c-0.14,0-0.27,0.01-0.4,0.03l-2.67-2.67c-0.53-0.53-1.4-0.53-1.93,0c-0.53,0.53-0.53,1.4,0,1.93l2.67,2.67
		c-0.02,0.13-0.03,0.27-0.03,0.4c0,1.31,1.06,2.37,2.37,2.37c0.7,0,1.36-0.31,1.81-0.83h3.34C43.52,39.95,44.13,39.34,44.13,38.58z"
		/>
	<path class="st15" d="M43.01,31.24L43.01,31.24c-0.49,0.49-0.49,1.29,0,1.78c0.25,0.25,0.57,0.37,0.89,0.37
		c0.32,0,0.65-0.12,0.89-0.37c0.49-0.49,0.49-1.29,0-1.78C44.3,30.75,43.5,30.75,43.01,31.24z"/>
	<path class="st15" d="M43.01,43.8c-0.49,0.49-0.49,1.29,0,1.78c0.24,0.24,0.56,0.37,0.89,0.37c0.34,0,0.65-0.13,0.89-0.37
		c0.49-0.49,0.49-1.29,0-1.78C44.3,43.31,43.5,43.31,43.01,43.8z"/>
	<path class="st15" d="M30.44,43.8c-0.49,0.49-0.49,1.29,0,1.78c0.24,0.24,0.56,0.37,0.89,0.37c0.34,0,0.65-0.13,0.89-0.37
		c0.49-0.49,0.49-1.29,0-1.78C31.73,43.31,30.93,43.31,30.44,43.8z"/>
	<path class="st15" d="M31.33,33.39c0.32,0,0.65-0.12,0.89-0.37c0.49-0.49,0.49-1.29,0-1.78c-0.49-0.49-1.29-0.49-1.78,0v0
		c-0.49,0.49-0.49,1.29,0,1.78C30.69,33.27,31.01,33.39,31.33,33.39z"/>
	<rect x="13.51" y="19.76" class="st15" width="3.53" height="3.53"/>
	<rect x="18.74" y="19.76" class="st15" width="3.53" height="3.53"/>
	<rect x="23.97" y="19.76" class="st15" width="3.53" height="3.53"/>
	<rect x="29.2" y="19.76" class="st15" width="3.53" height="3.53"/>
	<rect x="8.14" y="25.1" class="st15" width="3.53" height="3.53"/>
	<rect x="18.67" y="25.1" class="st15" width="3.53" height="3.53"/>
	<path class="st15" d="M29.2,25.12c0.01-0.01,0.02-0.01,0.03-0.02H29.2V25.12z"/>
	<rect x="8.14" y="30.43" class="st15" width="3.53" height="3.53"/>
	<path class="st15" d="M23.97,30.43v0.15c0.03-0.05,0.06-0.1,0.09-0.15H23.97z"/>
	<rect x="13.4" y="25.1" class="st15" width="3.53" height="3.53"/>
	<path class="st15" d="M26.49,27.29c0.32-0.31,0.64-0.62,0.98-0.9V25.1h-3.53v3.53h1.36C25.67,28.16,26.07,27.72,26.49,27.29z"/>
	<rect x="13.42" y="30.43" class="st15" width="3.53" height="3.53"/>
	<rect x="18.69" y="30.43" class="st15" width="3.53" height="3.53"/>
	<path class="st15" d="M36.75,4.32h-5.19V2.79c0-1-0.81-1.81-1.81-1.81c-0.5,0-0.95,0.2-1.28,0.53c-0.33,0.33-0.53,0.78-0.53,1.28
		v1.53H12.95V2.79c0-1-0.81-1.81-1.81-1.81c-0.5,0-0.95,0.2-1.28,0.53C9.52,1.84,9.32,2.29,9.32,2.79v1.53H4.12
		c-1.3,0-2.35,1.05-2.35,2.35v30.88C1.79,38.93,2.61,38.99,3,39h19c0,0,0-1,0-1c0,0.5-0.05,0.49,0,0H3V17l35-0.14v5.89h1.1V6.67
		C39.1,5.37,38.05,4.32,36.75,4.32z M38,15.13c0,0.5-0.4,0.9-0.9,0.9H3.9c-0.5,0-0.9-0.4-0.9-0.9V6.52c0-0.5,0.4-0.9,0.9-0.9h33.2
		c0.5,0,0.9,0.4,0.9,0.9V15.13z"/>
</g>
<g id="Capa_4">
</g>
<g id="Capa_5">
</g>
</svg>
