<svg version="1.2" xmlns="http://www.w3.org/2000/svg" viewBox="0 0 53 53" width="53" height="53"><style>.a{fill:#946fb5;stroke:#000}</style><path class="a" d="m6 6.3v39.7l40.8 1.2 1.2-39.7z"/><path class="a" d="m36.3 4v2.3h4.7v-2.3z"/><path class="a" d="m14.2 4v2.3h4.6v-2.3z"/><path class="a" d="m6 19.2h40.8"/><path class="a" d="m36 38.3v2.8l2.9 0.1 0.1-2.9z"/><path class="a" d="m29 38.3v2.8l2.9 0.1 0.1-2.9z"/><path class="a" d="m22 38.3v2.8l2.9 0.1 0.1-2.9z"/><path class="a" d="m15 38.3v2.8l2.9 0.1 0.1-2.9z"/><path class="a" d="m36 31.3v2.8l2.9 0.1 0.1-2.9z"/><path class="a" d="m29 31.3v2.8l2.9 0.1 0.1-2.9z"/><path class="a" d="m22 31.3v2.8l2.9 0.1 0.1-2.9z"/><path class="a" d="m15 31.3v2.8l2.9 0.1 0.1-2.9z"/><path class="a" d="m36 24.3v2.8l2.9 0.1 0.1-2.9z"/><path class="a" d="m29 24.3v2.8l2.9 0.1 0.1-2.9z"/><path class="a" d="m22 24.3v2.8l2.9 0.1 0.1-2.9z"/><path class="a" d="m15 24.3v2.8l2.9 0.1 0.1-2.9z"/></svg>