<svg version="1.2" xmlns="http://www.w3.org/2000/svg" viewBox="0 0 256 256" width="256" height="256"><style>.a{fill:#946fb5;stroke:#000;stroke-width:3}</style><path fill-rule="evenodd" class="a" d="m174.1 15.4c36.7 0 66.5 29.8 66.5 66.5v92.2c0 36.7-29.8 66.5-66.5 66.5h-92.2c-36.7 0-66.5-29.8-66.5-66.5v-92.2c0-36.7 29.8-66.5 66.5-66.5zm5.1 51.2c0 5.6 4.6 10.2 10.3 10.2 5.6 0 10.2-4.6 10.2-10.2 0-5.7-4.6-10.3-10.2-10.3-5.7 0-10.3 4.6-10.3 10.3zm-107.5 61.4c0 31.1 25.3 56.3 56.3 56.3 31.1 0 56.4-25.2 56.4-56.3 0-31.1-25.3-56.3-56.4-56.3-31 0-56.3 25.2-56.3 56.3zm102.4 0c0 25.4-20.7 46.1-46.1 46.1-25.4 0-46-20.7-46-46.1 0-25.4 20.6-46.1 46-46.1 25.4 0 46.1 20.7 46.1 46.1z"/></svg>