<svg version="1.2" xmlns="http://www.w3.org/2000/svg" viewBox="0 0 100 100" width="100" height="100"><style>.a{fill:#be9bde;stroke:#000}.b{fill:#946fb5}.c{fill:none;stroke:#fff;stroke-width:2}</style><path class="a" d="m64 59c-0.5 1.1-3.4 13.2-2 17-0.2 3.1-1.1 11.6-2 13-0.5 4 5.3 4.1 7-2 0-6.1-2-19.4 3-24"/><path class="a" d="m59 56c0 0-8.2 13.8-5 25-1.7 2.6-4.2 8.7-2 10 2.2 1.3 6-2.9 6-7 0-2.7 0-19.4 1-18 0.2-0.9 3.6-8.9 5-6"/><path class="a" d="m51 51c0 0 0.4 11.3-12 16-12.4 4.7-11 13-9 13 3.2 1.1 9.2-10.2 17-11 2.8-0.2 7.1-8.7 8-10 0.9-1.3 7.5-1.1 1-5-6.5-3.9 11 0 11 0"/><path class="a" d="m46.1 49.5c0 0-9.4 8.7-14.1-2.5-4.7-11.2 7-34.6-7-35-5.3-2.5-21.1-5.6-23 2-1.9 7.6 22-3.4 23 11 1 14.4-2.9 29.3 7 30 3.7 3.6 19 0.8 18-4"/><path class="a" d="m48 44c6-56.5 80.7-6.1 26 15 3.2 1.8-1 5.1-1 5.1 0 0-22.4-11.4-27.9-16.3-0.9-0.8-1.3-1.4-1.1-1.8 1.6-2.5-0.3-5.1 4-2z"/><path class="b" d="m75.2 51.9c-1.8-3.1 7.1-8.1 9-1.9 0.6 5.6-9.1 4-9 1.9z"/><path class="c" d=""/><path class="b" d="m55.9 37.5c3.1-2.5 9.9 6.5 3.4 9.5-6 1.5-5.8-9.4-3.4-9.5z"/><path class="b" d="m84.5 29.2c5.5-1.5 9.3 14.3-0.9 14.5-8.9-1.4-2.3-15.7 0.9-14.5z"/></svg>