<svg version="1.2" xmlns="http://www.w3.org/2000/svg" viewBox="0 0 100 100" width="100" height="100"><style>.a{fill:#be9bde;stroke:#000;stroke-width:.3}.b{fill:#946fb5}</style><path class="a" d="m22.8 50.5c-25.6-65.1 88.4-44.7 51 0.1 6.3-4.4 11.7 2.7 0.5 5.8-0.8 1.3 1.7 17.1 5 19.3 3.2 2.3 4.9 3 5.5 4.7 0.5 1.7 0 4.5-1.4 4.6-1.4 0.1-10.3-8.1-10.9-16.1-1.1-8-1.4-11.7-1.4-11.7l-10.8 1.9c0 0 9.5 21.1 0.3 24.8-7.9 1.8-1-5.9-0.4-8.6 0.6-2.5-1.1-14.4-3.7-14.4-1.4-1-4.3-3.1-6.2-1-2 2.1-10.2 17.2-8.7 21.6 0 2.7 5.9 4.9 4.9 6.2-0.6 1.4-3 2.6-4.4 1.6-1.2-0.9-6.3-4.3-5.1-9.8 1.4-5.6 6.5-14.4 6.1-16.9-0.3-2.6-1.4-2.3-1.4-2.3l-9.5-0.1c0 0-1.5 13-9.7 16.1-6.2 3.5-3.7 8.6-4.5 9.7-3.6 6.3-6.4-1.6-4.3-6.8 0.9-4.7 13.2-7.7 14.3-18.9-8.9-1.5-11.6-1-13-3.6-1.6-2.6-0.1-7.9 7.8-6.2z"/><path class="b" d="m29 48.8c-4.1-2.2 2.4-13.4 8.6-8 4.4 5.8-7.3 10.5-8.6 8z"/><path class="b" d="m49.2 33.4c-4.1-2.1 2.5-13.5 8.7-8 4.4 5.7-7.4 10.5-8.7 8z"/><path class="b" d="m26.7 34.9c-7.9-4.2 4.7-26.2 16.6-15.4 8.6 11.1-14.3 20.2-16.6 15.4z"/></svg>