<svg version="1.2" xmlns="http://www.w3.org/2000/svg" viewBox="0 0 273 110" width="273" height="110"><style>.a{fill:none;stroke:#fff;stroke-width:3}.b{fill:#fff}</style><path class="a" d="m117.9 33.6c-18.1-46.4 62.6-31.9 36.1 0.1 4.5-3.2 8.3 1.9 0.4 4.1-0.6 0.9 1.2 12.2 3.5 13.8 2.3 1.6 3.5 2.1 3.9 3.3 0.4 1.2 0 3.2-1 3.3-1 0.1-7.3-5.8-7.7-11.5-0.8-5.7-1-8.3-1-8.3l-7.6 1.3c0 0 6.7 15.1 0.2 17.7-5.6 1.3-0.7-4.2-0.3-6.1 0.4-1.8-0.8-10.3-2.6-10.3-1-0.7-3.1-2.2-4.4-0.7-1.4 1.5-7.2 12.3-6.2 15.4 0 1.9 4.2 3.5 3.5 4.4-0.4 1-2.1 1.9-3.1 1.2-0.9-0.7-4.5-3.1-3.6-7 1-4 4.6-10.3 4.3-12.1-0.2-1.8-1-1.6-1-1.6l-6.7-0.1c0 0-1.1 9.3-6.9 11.5-4.4 2.5-2.6 6.1-3.2 6.9-2.5 4.5-4.5-1.1-3-4.8 0.6-3.4 9.3-5.5 10.1-13.5-6.3-1.1-8.2-0.7-9.2-2.6-1.1-1.8-0.1-5.6 5.5-4.4z"/><path class="b" d="m122.3 32.4c-2.9-1.6 1.7-9.6 6.1-5.7 3.1 4.1-5.2 7.5-6.1 5.7z"/><path class="b" d="m136.6 21.4c-2.9-1.5 1.8-9.6 6.2-5.7 3.1 4.1-5.3 7.5-6.2 5.7z"/><path class="b" d="m120.7 22.5c-5.6-3 3.3-18.7 11.7-11 6.1 7.9-10.1 14.4-11.7 11z"/><path class="b" d="m70.7 75.9c-0.4-1.2-1.2-2.2-2.4-2.9 0.4-1.1 0.7-2.5 0.1-4.1-0.8-2.2-2.9-3.5-4.6-3.8-2-0.4-3.9 0-5.6 0.2-0.2 0.1-0.5 0.1-0.7 0.2l0.3 1.9v14.6c1.5 0.6 3 0.9 4.6 1 0.3 0.1 0.6 0.1 1 0.1 1.8 0 3.3-0.4 4.6-1.1 2.3-1.4 3.4-3.9 2.7-6.1zm-8.7-6.7c0.4 0 0.7 0 1.1 0.1 0.2 0.1 1.1 0.4 1.4 1.1 0.2 0.6-0.1 1.3-0.3 1.6-0.7-0.1-1.5 0-2.2 0zm4 9.3c-0.7 0.4-1.8 0.6-3.2 0.5-0.2-0.1-0.4-0.1-0.7-0.1v-2.7c1.2 0 2.4-0.1 3.4 0.1 0.7 0.2 1.3 0.7 1.4 1 0.1 0.2-0.3 0.8-0.8 1.2zm12.2-8.7v-4.2h-6.9v4.2h1.5v8.2h-1.2v4.2h6.7v-4.2h-1.3v-8.2zm13.3 8.3c-0.3 0-1-0.5-1.3-0.7-1.5-1.1-3-2.3-4.4-3.5 1.8-2.2 3.7-4.4 5.6-6.5l-3.1-2.8c-1.6 1.8-3.2 3.7-4.8 5.5v-4.4h-4.2v16.4h4.2v-4.6c1.4 1.1 2.8 2.3 4.3 3.3 0.7 0.5 2 1.5 3.7 1.5 0 0 0 0 0.1 0zm7.4-8.3v-4.2h-6.9v4.2h1.4v8.2h-1.2v4.2h6.7v-4.2h-1.3v-8.2zm11.1-4.2v10.8c-0.8-1.1-1.5-2.3-2-3.3-0.3-0.6-0.6-1.3-0.9-2-0.8-1.8-1.6-3.6-2.9-5.4h-4.2v16.4h4.2v-7.1c1.2 2.3 2.8 5.2 5.8 7.1h4.2v-16.5zm12.2 4.2v-4.2h-7v4.2h1.5v8.2h-1.2v4.2h6.7v-4.2h-1.3v-8.2zm18.1 4c-0.4-0.4-0.7-0.7-1.1-0.9 0-0.3 0.1-0.5 0.2-0.8 0.6-2.6-0.8-5.3-3.3-6.2-2.3-0.8-5.2-0.6-7.9 0.5l1 2.5c-0.3 3.9-0.3 8 0 12h0.1l-0.5 0.9c1.4 0.6 3 1 4.6 1 0.7 0 1.4-0.1 2.1-0.2 1.1-0.2 3.2-0.8 4.6-2.4 1.6-1.7 1.7-4.5 0.2-6.4zm-7-4.2c0.5 0.1 1 0.1 1.4 0.3 0.5 0.2 0.7 0.7 0.6 1.3-0.1 0.5-0.5 0.8-1.4 1.1-0.2 0-0.5 0.1-0.7 0.1 0-0.9 0.1-1.8 0.1-2.8zm3.7 7.8c-0.4 0.6-1.7 0.9-2.3 1-0.5 0.1-1 0.1-1.5 0.1 0-0.6 0-1.2 0-1.8 0.9-0.2 1.9-0.5 3-0.5 0.4 0 1 0.2 1 0.8-0.1 0.1-0.1 0.2-0.2 0.3zm16.9-9.6c-1.3-1.6-3-2.5-4.8-2.6-3.5-0.1-6.1 2.7-7 5.3-0.7 2.2-0.7 4.9 0.2 7 0.9 2.4 2.9 4.2 5.2 4.8 0.4 0.1 0.9 0.1 1.4 0.1 1.2 0 2.4-0.4 3.5-1.1 2.3-1.6 3.4-4.4 3.6-6.4 0.3-2.4-0.5-5.2-2.1-7.2zm-2.1 6.6c-0.1 1.4-0.9 2.9-1.8 3.5-0.6 0.4-1.1 0.5-1.6 0.3-1-0.2-1.8-1-2.3-2.1-0.5-1.3-0.5-2.9-0.1-4.2 0.4-1.2 1.5-2.4 2.8-2.4 0 0 0 0 0 0 0.7 0 1.3 0.3 1.8 1 0.9 1 1.4 2.7 1.2 3.9zm16.8-9.1c-4 0.5-8.1 0.6-12.2 0.3l-0.3 4.2c1.5 0.1 2.9 0.2 4.4 0.2v12.3h4.2v-12.4c1.5-0.1 3-0.2 4.5-0.4zm13.4 0c-4.1 0.5-8.2 0.6-12.3 0.4l-0.3 4.1c1.5 0.1 2.9 0.2 4.4 0.2v12.3h4.2v-12.4c1.5-0.1 3-0.2 4.5-0.4zm12.8 2.6c-1.3-1.6-3-2.4-4.8-2.5-3.5-0.2-6.1 2.6-7 5.2-0.7 2.3-0.7 4.9 0.2 7 0.9 2.5 2.9 4.2 5.2 4.8 0.4 0.1 0.9 0.1 1.4 0.1 1.2 0 2.4-0.3 3.5-1.1 2.3-1.6 3.4-4.3 3.6-6.4 0.3-2.4-0.5-5.2-2.1-7.1zm-2.1 6.6c-0.1 1.4-0.9 2.8-1.8 3.5-0.6 0.3-1.1 0.4-1.6 0.3-1-0.3-1.8-1.1-2.3-2.2-0.5-1.2-0.5-2.9-0.1-4.2 0.4-1.2 1.5-2.4 2.8-2.4 0 0 0 0 0 0 0.7 0 1.3 0.4 1.8 1 0.9 1.1 1.4 2.7 1.2 4zm21.3-9l-4.2 0.2c0 0 0 0 0 0-1.6 1.9-3 3.9-4 6l-3.7-5.9h-4.2v16.5h4.2v-8.5l3.2 5.2 3.6-2.2-0.5-0.7c0.5-1.2 1.1-2.4 1.7-3.5 0.1 3.2 0.1 6.5 0.1 9.7h4.2c0-5.6-0.1-11.2-0.4-16.8z"/><path class="b" d="m90.5 106l-1.7-19.2h-1.2l-1.6 19.2h1.2l0.3-3.3h1.5l0.3 3.3zm-2.3-12.3l0.7 7.8h-1.3zm16.2 11.1c0.1-0.2 0.2-0.5 0.2-0.8v-15.2c0-0.6-0.3-1.1-0.7-1.5-0.5-0.4-0.8-0.6-1.6-0.6-0.4 0-0.7 0.1-1 0.2-0.3 0.1-0.5 0.2-0.7 0.4-0.2 0.2-0.4 0.4-0.5 0.7-0.1 0.2 0 0.5 0 0.8v15.2c0 0.3-0.1 0.6 0 0.8 0.1 0.3 0.3 0.5 0.5 0.7 0.2 0.2 0.4 0.3 0.7 0.4 0.3 0.1 0.6 0.2 1 0.2 0.7 0 1.1-0.2 1.4-0.5l1.1 0.8 0.6-0.8zm-3.1-16c0-0.3 0-0.6 0.2-0.8 0.2-0.2 0.4-0.3 0.8-0.3 0.3 0 0.6 0.1 0.8 0.3 0.2 0.2 0.2 0.5 0.2 0.8v15.1c0 0.3 0 0.6-0.2 0.8-0.2 0.2-0.5 0.3-0.8 0.3-0.4 0-0.6-0.1-0.8-0.3-0.2-0.2-0.2-0.5-0.2-0.8zm17 15.1c0 0.3-0.1 0.5-0.3 0.7-0.2 0.3-0.4 0.4-0.8 0.4-0.4 0-0.6-0.1-0.7-0.4-0.2-0.2-0.3-0.4-0.3-0.7v-17.2h-1.2v17.2c0 0.3-0.1 0.6 0.1 0.9 0.1 0.2 0.2 0.4 0.4 0.6 0.2 0.2 0.4 0.3 0.7 0.4 0.3 0.1 0.6 0.2 1 0.2 0.8 0 1.1-0.2 1.6-0.6 0.4-0.3 0.7-0.9 0.7-1.5v-17.2h-1.2zm15.3 2.1l-1.6-19.2h-1.2l-1.7 19.2h1.2l0.3-3.3h1.5l0.3 3.3zm-2.2-12.3l0.7 7.8h-1.4zm16.4-4.8c0-0.7-0.3-1.2-0.7-1.5-0.4-0.4-0.9-0.6-1.7-0.6h-2.1v19.2h1.2v-8.7c0 0 0.9 0 0.9 0 0.4 0 0.7 0.1 0.9 0.3 0.1 0.2 0.3 0.5 0.3 0.8v7.6h1.2v-7.8c0-0.7-0.3-1.2-0.7-1.6 0 0 0 0 0 0 0-0.1 0-0.1 0-0.1 0.4-0.4 0.7-0.9 0.7-1.6zm-2.4-1.1c0.3 0 0.7 0.1 0.9 0.3 0.1 0.2 0.3 0.5 0.3 0.8v6.1c0 0.3-0.2 0.6-0.3 0.8-0.2 0.2-0.6 0.3-0.9 0.3h-0.9v-8.3zm11.9 18.2v-19.2h1.2v19.2zm14.1-2.1c0 0.3 0 0.6-0.2 0.8-0.2 0.2-0.5 0.3-0.8 0.3-0.4 0-0.6-0.1-0.8-0.3-0.2-0.2-0.2-0.5-0.2-0.8v-17.1h-1.3v17.1c0 0.4 0 0.7 0.1 0.9 0.1 0.3 0.3 0.5 0.5 0.7 0.2 0.2 0.4 0.3 0.7 0.4 0.3 0.1 0.6 0.2 1 0.2 0.8 0 1.1-0.2 1.6-0.6 0.4-0.4 0.7-0.9 0.7-1.6v-17.1h-1.3zm13.8-2.9l-1.7-14.3h-1.2v19.2h1.2v-9.3l1.1 9.3h1.2l1.2-9.3v9.3h1.2v-19.2h-1.2z"/></svg>