<svg version="1.2" xmlns="http://www.w3.org/2000/svg" viewBox="0 0 273 110" width="273" height="110"><style>.a{fill:#be9bde;stroke:#000}.b{fill:#946fb5}</style><path class="a" d="m117.9 33.6c-18.1-46.4 62.6-31.9 36.1 0.1 4.5-3.2 8.3 1.9 0.4 4.1-0.6 0.9 1.2 12.2 3.5 13.8 2.3 1.6 3.5 2.1 3.9 3.3 0.4 1.2 0 3.2-1 3.3-1 0.1-7.3-5.8-7.7-11.5-0.8-5.7-1-8.3-1-8.3l-7.6 1.3c0 0 6.7 15.1 0.2 17.7-5.6 1.3-0.7-4.2-0.3-6.1 0.4-1.8-0.8-10.3-2.6-10.3-1-0.7-3.1-2.2-4.4-0.7-1.4 1.5-7.2 12.3-6.2 15.4 0 1.9 4.2 3.5 3.5 4.4-0.4 1-2.1 1.9-3.1 1.2-0.9-0.7-4.5-3.1-3.6-7 1-4 4.6-10.3 4.3-12.1-0.2-1.8-1-1.6-1-1.6l-6.7-0.1c0 0-1.1 9.3-6.9 11.5-4.4 2.5-2.6 6.1-3.2 6.9-2.5 4.5-4.5-1.1-3-4.8 0.6-3.4 9.3-5.5 10.1-13.5-6.3-1.1-8.2-0.7-9.2-2.6-1.1-1.8-0.1-5.6 5.5-4.4z"/><path class="b" d="m122.3 32.4c-2.9-1.6 1.7-9.6 6.1-5.7 3.1 4.1-5.2 7.5-6.1 5.7z"/><path class="b" d="m136.6 21.4c-2.9-1.5 1.8-9.6 6.2-5.7 3.1 4.1-5.3 7.5-6.2 5.7z"/><path class="b" d="m120.7 22.5c-5.6-3 3.3-18.7 11.7-11 6.1 7.9-10.1 14.4-11.7 11z"/><path class="a" d="m70 78.9c0 1.5-0.5 2.4-1.8 2.4-0.9 0-1.7 0-1.7 0v-4.8h1.4c1.1 0 2.1 0.5 2.1 2.4zm-0.4-7.1c0 1.4-0.5 2-1.8 2h-1.3v-3.9c0 0 0.8-0.1 1.6-0.1 1 0 1.5 0.8 1.5 2zm3.7 7c0-2.6-1.3-3.7-2.6-3.8 1.1-0.3 2.2-1.2 2.2-3.5 0-3.2-1.4-4.5-5.3-4.5-1.6 0-4.4 0.2-4.4 0.2v16.8c0 0 2.7 0.2 4.8 0.2 3 0 5.3-0.9 5.3-5.4zm8.8 5.2v-2.5h-1.6v-11.8h1.6v-2.5h-6.6v2.5h1.7v11.8h-1.7v2.5zm13.5 0l-5.2-9.5 5.1-7.3h-3.7l-3.9 5.8v-5.8h-3.3v16.8h3.3v-5.9l0.5-0.7 3.4 6.6zm8 0v-2.5h-1.7v-11.8h1.7v-2.5h-6.7v2.5h1.7v11.8h-1.7v2.5zm13.4 0v-16.8h-2.9v13.8l-3.2-13.8h-4.8v16.8h2.9v-13.5l3.2 13.5zm9.2 0v-2.5h-1.7v-11.8h1.7v-2.5h-6.7v2.5h1.7v11.8h-1.7v2.5zm16.1-5.1c0 1.5-0.5 2.4-1.8 2.4-0.9 0-1.7 0-1.7 0v-4.8h1.4c1.1 0 2.1 0.5 2.1 2.4zm-0.4-7.1c0 1.4-0.5 2-1.9 2h-1.2v-3.9c0 0 0.8-0.1 1.6-0.1 0.9 0 1.5 0.8 1.5 2zm3.7 7c0-2.6-1.3-3.7-2.6-3.8 1-0.3 2.1-1.2 2.1-3.5 0-3.2-1.4-4.5-5.3-4.5-1.6 0-4.3 0.2-4.3 0.2v16.8c0 0 2.7 0.2 4.7 0.2 3.1 0 5.4-0.9 5.4-5.4zm10.4-3.3c0 4.9-0.6 6.1-2.3 6.1-1.7 0-2.3-1.2-2.3-6.1 0-4.9 0.6-5.9 2.3-5.9 1.7 0 2.3 1 2.3 5.9zm3.3-0.1c0-5.6-1-8.4-5.6-8.4-4.6 0-5.6 2.8-5.6 8.4 0 5.9 0.9 8.8 5.6 8.8 4.8 0 5.6-2.9 5.6-8.8zm11.2-5.3v-2.9h-10.2v2.9h3.5v13.9h3.2v-13.9zm10.7 0v-2.9h-10.2v2.9h3.5v13.9h3.3v-13.9zm8.8 5.4c0 4.9-0.5 6.1-2.3 6.1-1.7 0-2.2-1.2-2.2-6.1 0-4.9 0.5-5.9 2.2-5.9 1.8 0 2.3 1 2.3 5.9zm3.4-0.1c0-5.6-1-8.4-5.7-8.4-4.6 0-5.6 2.8-5.6 8.4 0 5.9 0.9 8.8 5.6 8.8 4.8 0 5.7-2.9 5.7-8.8zm15.5 8.6v-16.8h-4.8l-1.4 6.5-1.5-6.5h-5v16.8h3v-14.4l2.1 8.8h2.5l2.1-8.8v14.4z"/><path  d="m106.4 101l-1.1-12h-0.7l-1.1 12h0.8l0.2-2.1h0.9l0.2 2.1zm-1.4-7.7l0.4 4.9h-0.8zm10.1 6.9c0.1-0.1 0.1-0.3 0.1-0.5v-9.4c0-0.5-0.2-0.8-0.4-1-0.3-0.2-0.5-0.4-1-0.4-0.2 0-0.4 0.1-0.6 0.1-0.2 0.1-0.3 0.2-0.5 0.3-0.1 0.1-0.2 0.2-0.2 0.4-0.1 0.2-0.1 0.3-0.1 0.6v9.4c0 0.2 0 0.4 0.1 0.6 0 0.1 0.1 0.3 0.2 0.4 0.2 0.1 0.3 0.2 0.5 0.2 0.2 0.1 0.4 0.1 0.6 0.1 0.5 0 0.7-0.1 0.9-0.3l0.6 0.5 0.4-0.5zm-1.9-10c0-0.2 0-0.3 0.2-0.5 0.1-0.1 0.2-0.2 0.4-0.2 0.2 0 0.4 0.1 0.5 0.2 0.1 0.2 0.2 0.3 0.2 0.5v9.5c0 0.2-0.1 0.3-0.2 0.4-0.1 0.2-0.3 0.3-0.5 0.3-0.2 0-0.3-0.1-0.4-0.3-0.2-0.1-0.2-0.2-0.2-0.4zm10.6 9.4c0 0.2 0 0.3-0.2 0.5-0.1 0.1-0.2 0.2-0.5 0.2-0.2 0-0.3-0.1-0.4-0.2-0.1-0.2-0.2-0.3-0.2-0.5v-10.8h-0.7v10.8c0 0.2-0.1 0.4 0 0.5 0.1 0.2 0.1 0.3 0.3 0.4 0.1 0.2 0.3 0.3 0.4 0.3 0.2 0.1 0.4 0.1 0.7 0.1 0.4 0 0.7-0.1 0.9-0.4 0.3-0.2 0.5-0.5 0.5-0.9v-10.8h-0.8zm9.6 1.3l-1-12h-0.8l-1 12h0.7l0.2-2h1l0.2 2zm-1.5-7.6l0.5 4.8h-0.9zm10.3-2.9c0-0.5-0.2-0.8-0.4-1-0.3-0.3-0.6-0.4-1.1-0.4h-1.3v12h0.7v-5.4c0 0 0.6 0 0.6 0 0.2 0 0.4 0.1 0.5 0.2 0.1 0.1 0.2 0.3 0.2 0.5v4.7h0.8v-4.8c0-0.5-0.2-0.8-0.4-1 0 0-0.1 0-0.1-0.1 0 0 0.1 0 0.1 0 0.2-0.2 0.4-0.6 0.4-1zm-1.5-0.7c0.2 0 0.4 0.1 0.5 0.2 0.1 0.1 0.2 0.3 0.2 0.5v3.8c0 0.2-0.1 0.4-0.2 0.5-0.1 0.1-0.3 0.2-0.5 0.2h-0.6v-5.2zm7.5 11.4v-12h0.7v12zm8.8-1.3c0 0.2 0 0.3-0.1 0.5-0.1 0.1-0.3 0.2-0.5 0.2-0.2 0-0.4-0.1-0.5-0.2-0.1-0.2-0.1-0.3-0.1-0.5v-10.7h-0.8v10.7c0 0.2 0 0.4 0 0.6 0.1 0.1 0.2 0.2 0.3 0.4 0.2 0.1 0.3 0.2 0.5 0.2 0.2 0.1 0.4 0.1 0.6 0.1 0.5 0 0.7-0.1 1-0.3 0.2-0.3 0.4-0.6 0.4-1v-10.7h-0.8zm8.7-1.8l-1.1-9h-0.8v12.1h0.8v-5.9l0.7 5.9h0.7l0.8-5.9v5.9h0.7v-12.1h-0.7z"/></svg>