<svg version="1.2" xmlns="http://www.w3.org/2000/svg" viewBox="0 0 64 64" width="64" height="64"><style>.a{fill:#fff;stroke:#000;stroke-width:2}</style><path class="a" d="m21 41c0 25.1 40 28.3 40 0 0-28.3-40-27.5-40 0zm0 0c0 25.1 40 28.3 40 0 0-28.3-40-27.5-40 0zm0 0c0 25.1 40 28.3 40 0 0-28.3-40-27.5-40 0z"/><path class="a" d="m13 33c0 25.1 40 28.3 40 0 0-28.3-40-27.5-40 0zm0 0c0 25.1 40 28.3 40 0 0-28.3-40-27.5-40 0zm0 0c0 25.1 40 28.3 40 0 0-28.3-40-27.5-40 0z"/><path class="a" d="m5 25c0 25.1 40 28.3 40 0 0-28.3-40-27.5-40 0zm0 0c0 25.1 40 28.3 40 0 0-28.3-40-27.5-40 0zm0 0c0 25.1 40 28.3 40 0 0-28.3-40-27.5-40 0z"/><path class="a" d="m31 18.1c0-7.2-10.9-11.4-10.9 0.4 0.2 9.8 10 2.2 10.9 10-0.4 5.4-11.2 11-11.2 1"/><path class="a" d="m27 12v21"/><path class="a" d="m24 10v24"/></svg>