<svg version="1.2" xmlns="http://www.w3.org/2000/svg" viewBox="0 0 48 48" width="48" height="48"><style>.a{fill:#946fb5}.b{fill:none;stroke:#946fb5;stroke-width:4}.c{fill:#be9bde;stroke:#000;stroke-width:.4}</style><path class="a" d="m6.6 37.4c6.4-7.9 33.1-8.3 33.4 0.6 0.3 8.9-14.2 7.1-16.8 9-3.8-1.3-12.1-3.7-16.6-9.6z"/><path class="b" d="m3.1 24c0-27.7 42.1-26.6 42.1-2.1 0 32.6-42.1 29.7-42.1 2.1z"/><path class="a" d="m16 18.9c0-12.4 17-11 17-0.9 0 13.2-17 13.5-17 0.9z"/><path class="c" d="m26.9 7.6c7.3-14.9 21.9 8.3 8.1 8.9 1.8 0.4 1.4 2.5-0.9 1.1-0.4 0-2.8 3-2.6 3.9 0.1 0.9 0.2 1.3 0 1.7-0.2 0.4-0.7 0.7-1 0.5-0.2-0.2-0.2-3.1 1.1-4.5 1.2-1.4 1.8-2.1 1.8-2.1l-2-1.6c0 0-2.2 5.1-4.3 4-1.6-1.1 0.8-1.1 1.4-1.4 0.5-0.3 2.4-2.5 1.9-2.9 0-0.4-0.1-1.3-0.8-1.3-0.7 0-4.6 1-5.1 1.9-0.5 0.5 0 1.8-0.3 1.9-0.4 0.1-1-0.1-1-0.5-0.1-0.4-0.3-1.8 0.9-2.5 1.2-0.6 3.5-1.1 3.9-1.6 0.4-0.5 0.2-0.6 0.2-0.6l-1.5-1.7c0 0-2.5 1.8-4.4 0.9-1.6-0.6-2.1 0.7-2.4 0.7-1.7 0.4-0.7-1.4 0.5-1.8 1-0.6 3.5 1.1 5.6-0.5-1.2-1.8-1.7-2.2-1.4-2.9 0.2-0.7 1.3-1.2 2.3 0.4z"/><path class="a" d="m28.2 8.4c-0.3-1.1 2.7-1.7 2.7 0.2-0.3 1.7-3 0.4-2.7-0.2z"/><path class="a" d="m34.1 9.5c-0.3-1.1 2.7-1.7 2.8 0.2-0.3 1.7-3 0.4-2.8-0.2z"/><path class="a" d="m30.2 5.8c-0.5-2.1 5.4-3.4 5.4 0.4-0.6 3.3-5.8 0.8-5.4-0.4z"/></svg>