<svg version="1.2" xmlns="http://www.w3.org/2000/svg" viewBox="0 0 256 256" width="256" height="256"><style>.a{fill:#946fb5;stroke:#000;stroke-width:3}</style><path fill-rule="evenodd" class="a" d="m230.4 128c0 56.6-45.8 102.4-102.4 102.4-18.4 0-35.6-4.9-50.5-13.4l-51 13.4 13.7-49.9c-9.2-15.4-14.6-33.3-14.6-52.5 0-56.6 45.8-102.4 102.4-102.4 56.6 0 102.4 45.8 102.4 102.4zm-144.2-44.6c-2.3 2.5-8.9 8.7-8.9 21.2 0 12.4 9.1 24.5 10.3 26.2 1.3 1.7 17.6 28.1 43.4 38.3 21.4 8.4 25.8 6.7 30.4 6.3 4.7-0.4 15-6.1 17.1-12.1 2.2-5.9 2.2-11 1.5-12-0.6-1-2.3-1.7-4.9-3-2.5-1.2-15-7.4-17.3-8.2-2.3-0.8-4-1.3-5.7 1.3-1.7 2.5-6.5 8.2-8 9.9-1.5 1.7-3 1.9-5.5 0.6-2.5-1.3-10.7-3.9-20.4-12.6-7.5-6.7-12.6-15-14.1-17.5-1.5-2.6-0.2-3.9 1.1-5.2 1.2-1.1 2.6-2.9 3.8-4.4 1.3-1.5 1.7-2.6 2.5-4.3 0.9-1.6 0.5-3.1-0.2-4.4-0.6-1.3-5.5-13.8-7.8-18.8-1.9-4.2-3.9-4.4-5.7-4.4-1.5-0.1-3.2-0.1-4.9-0.1-1.7 0-4.4 0.7-6.7 3.2z"/></svg>